<?xml version="1.0" standalone="no"?>
<!DOCTYPE svg PUBLIC "-//W3C//DTD SVG 20010904//EN"
 "http://www.w3.org/TR/2001/REC-SVG-20010904/DTD/svg10.dtd">
<svg version="1.0" xmlns="http://www.w3.org/2000/svg"
 width="295.000000pt" height="295.000000pt" viewBox="0 0 295.000000 295.000000"
 preserveAspectRatio="xMidYMid meet">
<metadata>
Created by potrace 1.14, written by Peter Selinger 2001-2017
</metadata>
<g transform="translate(0.000000,295.000000) scale(0.100000,-0.100000)"
fill="#000000" stroke="none">
<path d="M570 2942 c-19 -1 -60 -8 -90 -14 -30 -6 -60 -13 -67 -14 -6 -1 -40
-16 -75 -33 -158 -78 -269 -218 -313 -396 -16 -64 -18 -151 -19 -995 -1 -509
2 -941 6 -960 4 -19 9 -46 11 -60 10 -49 64 -171 80 -178 4 -2 7 -10 7 -18 0
-8 5 -14 10 -14 6 0 10 -5 10 -10 0 -13 85 -100 125 -127 78 -54 150 -84 240
-100 17 -3 453 -6 970 -8 1046 -2 1013 -4 1150 65 154 77 261 212 304 382 19
72 20 120 20 1012 0 892 -1 939 -19 1011 -33 129 -78 206 -169 294 -47 45
-147 113 -173 117 -5 1 -10 3 -13 4 -3 1 -8 3 -12 5 -5 1 -15 5 -23 8 -8 4
-26 8 -40 11 -14 2 -33 8 -43 12 -17 6 -1798 13 -1877 6z"/>
</g>
</svg>
