<?xml version="1.0" standalone="no"?>
<!DOCTYPE svg PUBLIC "-//W3C//DTD SVG 20010904//EN"
 "http://www.w3.org/TR/2001/REC-SVG-20010904/DTD/svg10.dtd">
<svg version="1.0" xmlns="http://www.w3.org/2000/svg"
 width="784.000000pt" height="784.000000pt" viewBox="0 0 784.000000 784.000000"
 preserveAspectRatio="xMidYMid meet">
<metadata>
Created by potrace 1.14, written by Peter Selinger 2001-2017
</metadata>
<g transform="translate(0.000000,784.000000) scale(0.100000,-0.100000)"
fill="#000000" stroke="none">
<path d="M620 6381 c-89 -5 -110 -10 -134 -28 -16 -13 -34 -23 -40 -23 -21 0
-132 -124 -159 -177 l-27 -53 0 -2162 0 -2162 27 -56 c37 -75 125 -164 197
-200 l59 -30 3355 0 3355 0 45 30 c25 16 50 30 56 30 18 0 89 74 118 122 15
24 30 63 34 86 3 23 13 47 20 53 21 17 21 4231 0 4248 -8 7 -18 31 -21 54 -13
79 -90 178 -170 218 -22 11 -53 27 -70 37 -28 16 -227 17 -3285 18 -1790 0
-3302 -2 -3360 -5z m832 -1290 c74 -5 113 -12 125 -23 10 -8 35 -21 56 -28 20
-6 37 -16 37 -21 0 -5 15 -15 33 -23 44 -19 107 -80 107 -103 0 -11 11 -32 25
-47 14 -15 25 -37 25 -50 0 -13 10 -36 21 -50 18 -23 24 -52 34 -164 8 -75 18
-155 24 -177 6 -22 11 -79 11 -126 0 -82 -1 -87 -22 -93 -30 -8 -312 -8 -332
0 -14 5 -16 28 -16 148 0 86 -7 186 -18 256 -17 107 -21 117 -52 149 -56 55
-196 84 -277 57 -25 -9 -56 -16 -68 -16 -34 0 -96 -67 -107 -114 -5 -23 -17
-49 -26 -59 -16 -18 -17 -77 -17 -746 0 -653 2 -729 16 -752 9 -13 20 -40 24
-59 8 -40 41 -78 105 -123 44 -31 48 -32 152 -32 86 0 110 3 125 17 111 102
105 92 125 223 11 68 20 183 21 265 l2 145 180 0 180 0 3 -75 c2 -42 -3 -110
-12 -155 -9 -44 -20 -129 -25 -190 -7 -78 -16 -122 -30 -150 -12 -21 -21 -47
-21 -56 0 -9 -8 -27 -18 -40 -11 -13 -24 -38 -29 -55 -13 -37 -113 -135 -151
-148 -15 -5 -38 -17 -51 -27 -13 -11 -34 -19 -47 -19 -13 0 -51 -10 -85 -21
-76 -26 -230 -32 -304 -12 -27 8 -79 21 -115 29 -35 8 -71 21 -80 28 -8 8 -26
17 -40 21 -35 11 -190 171 -190 198 0 11 -10 31 -21 44 -13 13 -25 44 -30 74
-5 28 -16 60 -26 71 -25 28 -31 177 -31 788 0 618 6 770 31 798 10 10 22 45
27 77 6 36 17 65 30 77 11 10 20 29 20 42 0 33 160 185 203 193 18 3 47 15 66
26 54 32 221 43 433 28z m1092 -7 c14 -5 16 -49 16 -389 0 -329 2 -384 15
-395 21 -18 88 -7 114 19 12 12 27 21 35 21 7 0 24 9 38 19 46 36 235 54 322
30 47 -13 111 -77 127 -128 7 -20 20 -47 30 -60 18 -23 19 -59 19 -787 0 -662
-2 -765 -15 -777 -12 -12 -46 -15 -167 -16 -93 0 -157 4 -165 11 -10 8 -13
154 -13 713 l0 703 -41 41 c-35 34 -48 41 -81 41 -48 0 -127 -39 -180 -90
l-38 -35 0 -681 c0 -577 -2 -683 -14 -693 -10 -9 -62 -11 -173 -9 l-158 3 -3
1220 c-1 671 0 1226 3 1233 3 9 44 12 159 12 85 0 161 -3 170 -6z m4711 -686
c4 -18 16 -48 26 -66 17 -30 36 -90 42 -131 1 -10 -13 -18 -43 -24 -25 -5 -50
-16 -57 -24 -7 -9 -36 -20 -65 -24 -39 -6 -59 -16 -77 -36 -22 -25 -23 -33
-18 -103 3 -41 13 -93 22 -114 22 -52 22 -209 0 -242 -8 -13 -19 -62 -24 -108
-6 -62 -14 -92 -30 -112 -11 -15 -21 -35 -21 -44 0 -45 -176 -190 -230 -190
-15 0 -60 -9 -101 -20 -88 -23 -127 -25 -153 -5 -23 17 -59 19 -86 5 -25 -13
-35 -72 -21 -120 14 -46 20 -48 236 -53 107 -3 148 -7 172 -20 18 -10 60 -20
93 -24 67 -7 92 -23 183 -113 52 -52 80 -110 98 -205 14 -71 2 -210 -22 -254
-10 -20 -19 -43 -19 -51 0 -21 -113 -136 -142 -146 -13 -4 -34 -15 -47 -25
-13 -11 -38 -19 -55 -19 -17 0 -51 -10 -76 -22 -39 -18 -69 -21 -236 -26 -180
-4 -193 -3 -240 17 -27 12 -71 25 -98 28 -31 4 -57 15 -74 30 -14 12 -31 23
-38 23 -18 0 -94 69 -94 85 0 6 -12 34 -27 61 -31 57 -37 151 -11 181 8 10 20
33 27 52 14 44 75 117 112 136 24 13 29 22 29 53 0 30 -8 47 -40 82 -22 25
-42 60 -46 78 -11 54 2 139 25 168 12 15 21 32 21 38 0 6 23 33 50 59 43 41
50 54 50 86 0 31 -8 46 -50 90 -27 29 -50 62 -50 72 0 11 -12 45 -26 75 l-26
54 4 244 c3 219 5 246 21 264 10 11 21 41 25 66 6 38 18 58 76 121 75 82 137
129 185 140 75 16 193 22 281 13 84 -9 102 -14 150 -46 30 -20 64 -46 75 -59
11 -13 29 -23 38 -23 20 0 70 24 95 46 43 37 79 62 102 69 14 4 36 16 49 26
34 27 48 24 56 -13z m-2969 -34 c70 -35 174 -136 174 -169 0 -13 7 -30 15 -39
25 -24 32 -56 40 -166 4 -58 13 -125 21 -149 21 -62 31 -325 14 -346 -11 -13
-55 -15 -337 -15 -241 1 -329 -2 -339 -11 -13 -10 -15 -51 -12 -248 l3 -236
29 -42 c33 -49 75 -67 151 -67 66 0 90 15 120 75 21 41 27 70 33 172 l7 122
150 3 c196 4 196 4 194 -56 -1 -26 -7 -61 -14 -78 -7 -17 -16 -72 -20 -122 -5
-63 -13 -99 -25 -115 -9 -12 -20 -35 -24 -50 -6 -25 -75 -103 -146 -164 -15
-13 -55 -28 -99 -37 -40 -8 -78 -19 -85 -24 -6 -5 -43 -12 -82 -16 -55 -5 -81
-3 -115 10 -24 9 -75 22 -112 29 -45 8 -75 20 -88 34 -11 12 -23 21 -27 21 -8
0 -59 48 -82 77 -51 63 -71 105 -81 162 -5 35 -17 75 -27 89 -15 23 -17 70
-19 465 -3 416 -2 441 17 495 11 31 25 84 30 116 5 33 16 64 24 68 8 4 17 22
21 38 8 35 110 144 145 155 14 4 32 14 42 22 27 24 105 32 280 29 161 -3 169
-4 224 -32z m1377 27 c28 -7 53 -25 92 -67 50 -54 54 -62 60 -123 4 -36 13
-78 21 -93 12 -23 14 -146 14 -750 0 -396 -2 -724 -6 -727 -12 -12 -326 -12
-340 0 -12 10 -14 121 -14 685 l0 674 -31 65 c-27 57 -34 65 -65 71 -42 8 -99
-2 -117 -21 -8 -7 -30 -20 -50 -28 -72 -31 -69 12 -67 -741 0 -463 -3 -682
-10 -696 -10 -19 -21 -20 -169 -20 -121 0 -161 3 -170 14 -8 10 -10 248 -9
882 l3 869 164 3 c176 3 191 -1 191 -47 0 -54 50 -69 90 -26 13 14 34 25 46
25 13 0 32 9 42 20 31 33 232 52 325 31z"/>
<path d="M6526 4137 c-42 -10 -53 -18 -73 -52 -43 -74 -44 -82 -41 -315 3
-225 3 -225 31 -271 22 -37 39 -52 86 -73 66 -29 82 -31 99 -13 7 6 34 19 60
27 43 14 48 18 56 55 4 22 15 60 24 85 10 30 17 92 19 189 4 128 2 150 -16
192 -12 26 -21 60 -21 76 0 49 -21 75 -75 94 -58 20 -82 21 -149 6z"/>
<path d="M6402 2650 c-73 -79 -87 -102 -86 -142 1 -24 9 -46 20 -57 11 -10 26
-28 36 -39 14 -17 33 -21 133 -27 161 -10 313 0 345 24 14 9 38 41 54 70 28
52 28 53 11 91 -10 21 -36 54 -59 72 -38 31 -47 33 -141 39 -55 4 -140 7 -188
8 l-89 1 -36 -40z"/>
<path d="M3934 4122 c-6 -4 -24 -29 -40 -57 -28 -48 -29 -56 -32 -196 -5 -189
-14 -179 164 -179 182 0 179 -2 171 166 -5 101 -11 136 -33 193 -19 49 -33 71
-48 75 -31 8 -169 7 -182 -2z"/>
</g>
</svg>
